PathFileType	4	(X/Y/Z)	C:/Users/beibeiliu/ov580/test_trc\sequence.1_training_dense_left.trc
DataRate	CameraRate	NumFrames	NumMarkers	Units	OrigDataRate	OrigDataStartFrame	OrigNumFrames
120	120	23	19	mm	120	216	345
Frame#	Time	ThumbCMC			ThumbMCP			ThumbIP			ThumbTip			IndexMCP			IndexPIP			IndexTip			MiddleMCP			MiddlePIP			MiddleTip			RingMCP			RingPIP			RingTip			PinkyMCP			PinkyPIP			PinkyTip			BackHand1			BackHand2			BackHand3	
		X0	Y0	Z0	X1	Y1	Z1	X2	Y2	Z2	X3	Y3	Z3	X4	Y4	Z4	X5	Y5	Z5	X6	Y6	Z6	X7	Y7	Z7	X8	Y8	Z8	X9	Y9	Z9	X10	Y10	Z10	X11	Y11	Z11	X12	Y12	Z12	X13	Y13	Z13	X14	Y14	Z14	X15	Y15	Z15	X16	Y16	Z16	X17	Y17	Z17	X18	Y18	Z18	
215	1.79167	-163.585	-19.1165	1.42228	-154.47	-17.4142	-26.3608	-150.275	-12.6059	-46.044	-146.576	-8.38914	-66.5144	-167.07	28.2459	-45.9962	-163.734	39.9098	-68.4718	-163.687	47.9206	-83.6933	-191.421	36.7009	-43.5153	-196.679	54.6994	-63.3154	-198.303	70.3131	-82.0365	-208.742	35.4982	-36.2593	-211.43	51.3021	-53.2245	-215.74	66.4151	-65.5606	-227.552	21.685	-24.9982	-236.385	38.9327	-39.0597	-237.964	53.4917	-49.8223	-204.03	13.5294	-0.070471	-203.543	3.92436	25.4355	-180.953	6.62394	10.1566	
216	1.8	-159.081	-19.6678	0.937514	-151.641	-21.0195	-23.8247	-148.72	-13.3631	-45.7248	-144.312	-11.5692	-65.7557	-161.857	27.2816	-48.5735	-160.902	36.4473	-67.8733	-157.696	47.8199	-89.2481	-187.855	38.7245	-46.9223	-190.37	52.9078	-64.4814	-188.103	66.6938	-84.2765	-203.916	35.4377	-36.9957	-209.919	47.9839	-50.5561	-211.067	62.9898	-64.8972	-222.116	24.0704	-26.7306	-227.943	36.1653	-37.2314	-231.764	54.3628	-49.7473	-204.307	14.5717	1.04187	-202.817	4.58937	22.9802	-179.086	7.07943	8.53622	
217	1.80833	-161.173	-18.2224	2.17552	-150.608	-23.4455	-20.6319	-145.842	-18.2283	-43.6719	-144.824	-11.7098	-66.2263	-157.58	23.7068	-46.5613	-155.014	35.4403	-70.0928	-149.557	41.9803	-86.2731	-183.226	35.3017	-44.5065	-178.865	50.1471	-65.3179	-181.669	66.0935	-87.3943	-198.732	37.557	-39.5609	-199.64	48.0572	-54.0449	-199.01	63.5507	-69.1592	-218.164	29.2908	-30.1757	-221.871	38.4519	-41.3869	-225.099	53.4367	-52.462	-195.793	15.4199	-1.37013	-195.921	8.6295	21.892	-171.98	8.78454	7.57246	
218	1.81667	-153.914	-21.2034	2.62399	-143.666	-21.77	-25.7468	-138.504	-18.807	-47.1832	-137.488	-15.9912	-68.435	-153.151	21.0118	-46.2718	-147.974	31.9342	-68.9787	-144.075	38.5905	-87.2509	-173.917	36.5892	-48.5708	-174.235	49.5289	-69.6148	-174.22	63.6759	-89.5388	-192.799	33.5494	-39.5095	-196.504	49.7648	-55.8491	-196.233	63.5386	-72.241	-213.972	28.0436	-29.6054	-215.091	41.7214	-45.6978	-221.413	54.5261	-53.3389	-191.571	16.0647	0.229364	-195.003	8.69654	19.9896	-169.555	8.79547	9.22885	
219	1.825	-151.605	-22.6432	3.77284	-145.468	-23.4741	-23.4647	-135.671	-20.967	-47.7946	-134.176	-19.9744	-67.6903	-147.913	20.1412	-47.9177	-142.881	29.3283	-72.5909	-138.567	36.2662	-89.6231	-171.421	34.2053	-47.7874	-167.016	47.4445	-72.3254	-168.873	61.9779	-92.357	-192.654	35.5337	-40.4226	-189.323	47.674	-57.6105	-189.013	61.9132	-74.3453	-210.557	28.1914	-30.3681	-212.456	40.9357	-43.5093	-216.727	54.704	-55.7552	-187.769	19.1295	-2.25431	-188.969	7.7357	21.5503	-164.021	8.17381	6.92833	
220	1.83333	-150.899	-20.7067	1.95934	-139.484	-27.558	-21.9919	-134.059	-24.6655	-45.7997	-130.176	-24.7876	-64.7745	-142.764	19.717	-52.4546	-138.278	26.7823	-73.7234	-134.092	32.85	-91.0649	-165.378	35.7356	-52.7731	-163.622	46.9586	-72.4861	-166.649	59.1373	-91.4951	-183.501	33.9849	-42.4247	-183.79	48.8338	-62.1114	-181.654	58.7109	-75.3894	-204.425	30.7778	-33.5276	-209.383	42.2343	-46.3952	-207.903	55.646	-59.6044	-184.115	22.2147	-6.09316	-186.368	12.9601	17.2646	-158.753	10.3765	2.54943	
221	1.84167	-147.261	-20.4768	0.0642066	-140.956	-24.5527	-23.7327	-131.197	-25.536	-46.4083	-129.417	-23.0814	-68.0144	-140.405	17.4084	-52.4722	-136.971	25.227	-75.3211	-130.756	29.472	-94.6424	-160.679	32.7851	-53.8161	-161.86	46.8263	-76.3449	-157.979	57.0539	-95.4453	-179.801	34.2441	-44.1805	-180.08	47.6698	-61.8282	-177.538	61.4566	-79.674	-203.047	32.0713	-33.9678	-203.577	41.2237	-46.6368	-204.345	55.387	-60.0154	-183.988	21.8576	-4.04176	-185.62	15.5006	19.4841	-159.294	10.7883	1.26808	
222	1.85	-146.602	-20.0931	1.47556	-137.11	-27.0641	-21.5922	-131.002	-23.4921	-46.3349	-126.293	-23.6722	-67.487	-141.038	17.4449	-53.0498	-134.143	23.1428	-74.5726	-129.462	27.7025	-97.0961	-157.863	30.1393	-54.214	-157.084	44.1078	-77.9672	-157.423	55.4672	-97.5535	-180.534	36.1562	-47.6948	-176.522	45.01	-63.3397	-172.132	59.0937	-83.5338	-198.765	31.4859	-35.1784	-202.907	44.4259	-50.69	-201.737	58.8692	-64.0364	-178.789	22.6077	-7.8115	-180.936	15.6167	17.1968	-153.785	10.3604	3.41315	
223	1.85833	-142.851	-19.9382	1.11103	-136.837	-25.9383	-22.7579	-130.659	-26.4625	-44.3752	-124.045	-26.4184	-66.7608	-136.668	15.7281	-55.3897	-132.665	21.147	-77.8327	-129.336	26.5633	-99.0431	-154.976	31.3103	-59.5826	-157.027	40.0473	-77.2619	-150.956	49.9552	-101.415	-176.098	33.6933	-47.7656	-174.611	46.3237	-68.715	-171.911	54.3467	-83.8473	-197.121	31.8806	-37.9522	-198.138	40.1713	-51.1452	-203.533	54.9284	-63.2221	-176.036	22.5915	-6.07982	-180.902	18.0258	18.3584	-154.436	12.4915	-1.55915	
224	1.86667	-142.671	-18.4521	0.359284	-132.798	-26.283	-24.3025	-126.191	-28.8949	-45.5347	-126.763	-27.6023	-66.3831	-133.089	13.1652	-55.9049	-129.328	16.7635	-78.0009	-127.394	21.3374	-99.8074	-157.099	28.883	-58.0772	-155.765	38.3798	-80.7393	-153.944	46.7145	-101.958	-175.054	32.6974	-49.8253	-175.693	44.1253	-69.8249	-169.649	52.6862	-87.2058	-196.048	32.2888	-39.4199	-198.159	41.5878	-54.3884	-196.699	54.5327	-67.5688	-176.17	23.1063	-11.2192	-178.49	19.301	17.8524	-152.395	11.9212	-0.358593	
225	1.875	-141.58	-17.1411	1.0652	-132.663	-28.5135	-21.7654	-125.279	-31.5595	-44.5424	-123.307	-31.5159	-67.6272	-133.115	10.8245	-57.6626	-129.459	12.9477	-79.2497	-129.059	17.8332	-101.28	-153.184	26.412	-60.7575	-155.328	35.2865	-81.9777	-153.59	43.1993	-104.763	-174.642	30.5421	-51.6677	-174.084	43.4811	-74.3457	-170.963	50.0429	-91.8548	-191.481	30.8926	-41.7195	-197.886	42.3043	-58.3959	-196.31	49.1158	-68.4133	-171.883	25.654	-12.4814	-172.734	20.8062	14.8646	-151.965	14.0918	-0.596413	
226	1.88333	-141.941	-17.1791	-0.220831	-130.523	-29.963	-23.59	-125.475	-33.5046	-43.9836	-124.751	-35.7727	-66.284	-135.816	9.43466	-61.4383	-132.81	10.5206	-80.9942	-128.304	11.9484	-106.192	-154.476	24.2047	-61.6289	-154.527	30.981	-87.0023	-152.491	37.7805	-110.634	-176.072	30.0333	-54.4294	-173.04	37.1596	-75.7629	-170.687	44.4966	-93.3678	-191.454	27.7437	-41.0762	-194.515	37.4792	-60.7461	-197.585	47.8969	-74.0192	-172.565	23.8192	-13.7578	-171.496	20.0909	12.897	-147.967	11.7389	-5.52895	
227	1.89167	-137.385	-18.6676	0.856388	-132.052	-32.1296	-19.5259	-126.662	-37.1838	-44.9419	-124.498	-42.5325	-62.6194	-133.207	2.70773	-58.8366	-130.844	3.33264	-80.6579	-127.276	2.95498	-104.671	-155.896	20.5749	-63.4099	-152.966	23.3921	-85.6532	-156.149	30.9702	-113.084	-171.787	26.7473	-59.5329	-174.764	33.1934	-78.2112	-171.382	38.2397	-96.8044	-191.145	24.7719	-44.4253	-198.708	34.103	-58.5852	-196.207	43.1727	-76.7324	-172.787	23.2915	-14.9481	-169.538	19.9533	8.87888	-148.451	10.2606	-1.15234	
228	1.9	-138.113	-19.9249	2.41513	-130.74	-34.5388	-22.2919	-129.087	-38.5953	-44.3417	-125.603	-47.3077	-60.7833	-135.819	0.457144	-60.8165	-133.07	-1.2445	-86.6858	-127.736	-4.78279	-107.489	-155.493	15.8897	-68.4203	-151.993	15.8838	-87.7095	-154.923	22.0526	-114.617	-173.201	22.4125	-62.5975	-175.482	27.0357	-79.1607	-170.097	31.3078	-100.039	-195.041	25.3547	-47.1952	-195.708	28.5021	-64.9923	-201.312	39.4575	-81.4945	-168.964	22.989	-18.3704	-167.068	20.0355	7.45016	-146.003	11.9886	-5.69721	
229	1.90833	-138.756	-20.9955	2.91376	-133.456	-34.1211	-21.5647	-126.917	-44.5135	-41.5676	-127.39	-50.4643	-62.6987	-135.768	-4.48162	-61.9164	-135.032	-5.50847	-85.4491	-130.258	-11.3957	-110.651	-153.638	11.1511	-70.7531	-152.956	11.5663	-90.3041	-153.606	15.0776	-118.186	-173.351	17.7353	-60.13	-175.181	22.2547	-82.8639	-174.308	26.603	-100.127	-194.656	20.8822	-45.557	-197.118	24.8332	-63.368	-197.2	33.4721	-83.7465	-170.538	22.4788	-19.3092	-168.109	20.582	9.20119	-144.71	8.26861	-4.45815	
230	1.91667	-141.041	-20.4644	1.50342	-132.547	-38.635	-17.9235	-131.529	-43.7888	-43.1341	-125.827	-57.5229	-58.7457	-134.495	-8.44756	-64.247	-130.695	-12.4467	-87.1867	-133.823	-15.7472	-108.962	-154.091	6.561	-68.3083	-156.405	8.1057	-90.8701	-156.968	9.21624	-120.289	-175.538	15.8655	-60.2638	-174.515	17.1084	-82.3438	-175.671	22.0656	-102.001	-191.966	19.1173	-52.4837	-196.45	21.1289	-64.3553	-202.774	28.8558	-81.7161	-166.866	19.7721	-19.7257	-165.817	22.0511	8.01727	-143.277	9.35483	-8.82585	
231	1.925	-137.626	-21.3248	1.07671	-135.195	-38.4408	-16.406	-132.257	-46.953	-40.2712	-129.03	-58.4531	-59.7106	-136.614	-10.7886	-64.1594	-134.834	-16.5426	-87.6652	-134.526	-21.8769	-108.007	-153.851	3.7073	-70.3509	-159.147	4.61983	-92.182	-158.557	3.23263	-119.723	-174.842	13.0729	-66.8125	-176.781	14.0608	-83.9776	-175.578	14.0056	-103.717	-192.758	15.9759	-49.7147	-195.89	17.5471	-66.421	-201.287	24.246	-86.3931	-170.306	18.8142	-18.441	-168.32	20.285	6.17979	-145.092	9.89647	-9.79098	
232	1.93333	-137.517	-21.1714	2.83999	-134.551	-39.6933	-19.3073	-131.779	-49.5544	-38.4662	-130.336	-60.6884	-57.3784	-138.826	-12.1342	-65.3825	-134.185	-21.4989	-85.5666	-139.311	-27.5547	-110.269	-157.101	-0.394137	-70.0768	-156.981	-3.58003	-93.0017	-160.978	-4.30446	-121.443	-177.578	9.22337	-62.4285	-175.776	6.15921	-85.663	-180.969	10.704	-107.696	-191.432	11.6846	-48.0491	-202.044	15.2149	-68.3438	-203.905	19.2511	-83.1942	-168.511	14.8919	-18.2327	-170.046	22.1038	4.77218	-143.585	9.07208	-11.5086	
233	1.94167	-139.883	-19.769	-0.219075	-133.19	-42.6482	-15.0926	-132.676	-51.8361	-39.1165	-129.721	-64.6583	-55.8366	-137.139	-18.4832	-66.7619	-139.965	-24.6983	-87.3588	-141.864	-33.9412	-110.997	-161.778	-3.37329	-69.0044	-159.585	-9.13823	-92.1995	-166.113	-11.2685	-119.318	-178.089	3.94413	-61.519	-180.09	1.65925	-87.1824	-181.705	1.03299	-107.946	-194.647	9.54971	-51.8173	-200.316	8.76597	-68.019	-205.4	13.4454	-87.8201	-171.775	17.7619	-19.2693	-166.828	19.8739	2.63533	-145.182	6.4879	-10.6539	
234	1.95	-140.006	-18.9295	0.735918	-133.442	-43.0008	-16.5609	-134.161	-53.0855	-33.9925	-133.976	-63.4154	-52.5992	-142.619	-18.2151	-63.2601	-141.373	-27.8216	-83.0001	-143.317	-39.2256	-106.563	-163.567	-6.93049	-69.5389	-162.803	-14.693	-92.7154	-169.03	-19.1105	-119.174	-180.256	-0.407612	-61.8396	-181.781	-4.35056	-84.7214	-188.236	-4.78694	-104.128	-196.562	4.91805	-49.0251	-203.511	4.13181	-64.7817	-211.362	5.63039	-85.3117	-172.585	14.6718	-20.646	-167.905	20.5541	1.14294	-148.178	8.55568	-14.1871	
235	1.95833	-135.011	-20.8956	5.20839	-132.016	-42.6087	-16.7518	-133.354	-53.4943	-31.8157	-131.07	-67.7855	-48.7359	-143.322	-21.6629	-65.5018	-141.701	-32.6039	-86.9469	-141.012	-42.5449	-102.557	-165.46	-11.0308	-73.1076	-166.15	-19.5093	-93.8741	-168.294	-25.7765	-117.147	-180.035	-5.38904	-65.5055	-187.695	-8.44498	-83.3672	-189.792	-12.163	-102.538	-201.888	2.12602	-50.9655	-206.002	-1.73297	-69.3087	-209.441	-0.2749	-84.7147	-171.703	12.9918	-23.6794	-167.913	20.2164	1.78572	-144.7	7.64598	-9.92875	
236	1.96667	-135.905	-20.7429	2.40364	-134.824	-42.274	-16.8165	-132.526	-55.7097	-33.2124	-133.384	-68.6658	-49.865	-142.622	-22.6335	-64.6249	-142.43	-34.6433	-85.8373	-145.246	-43.2407	-102.035	-161.481	-14.7161	-72.3924	-167.332	-19.95	-90.6117	-170.87	-29.801	-114.762	-181.248	-6.15742	-60.9084	-187.743	-11.9764	-82.216	-192.391	-17.4602	-106.538	-202.103	-0.411934	-46.4391	-205.063	-5.58955	-63.0298	-213.563	-5.32643	-81.5679	-175.567	12.7419	-20.0389	-168.48	19.541	-0.369152	-145.322	7.59883	-11.9436	
237	1.975	-140.466	-18.1963	5.40693	-136.508	-42.6691	-11.3354	-135.514	-56.5202	-31.8658	-133.214	-69.9025	-43.1585	-141.274	-24.1088	-63.6593	-143.581	-37.259	-85.6994	-141.787	-49.0677	-103.542	-165.389	-14.1618	-72.2758	-165.717	-23.0105	-90.6818	-170.511	-34.7019	-117.338	-180.864	-9.16374	-63.3031	-189.412	-14.6886	-81.3375	-192.398	-21.6083	-100.613	-201.21	-2.46216	-46.1933	-209.584	-6.59796	-62.9909	-216.046	-10.8012	-84.4824	-176.669	11.9599	-24.3519	-172.903	20.9113	-1.07246	-146.866	5.61942	-12.7188	
